<svg id="Layer_1" data-name="Layer 1" xmlns="http://www.w3.org/2000/svg" viewBox="0 0 190.54 76.68"><defs><style>.cls-1{fill-rule:evenodd;}</style></defs><title>logo2</title><path class="cls-1" d="M154.56,76.6h0a31.1,31.1,0,0,1-25.12,15.9,27.13,27.13,0,0,0,23.2,25h1.92Zm-25.11,12h0a27.13,27.13,0,0,0,25-25,27.13,27.13,0,0,0-25,25Zm-3.9,0h0a31.1,31.1,0,0,1,15.9-25.12H100.57v1.93a27.13,27.13,0,0,0,25,23.19Zm-82.79-25h0a27.13,27.13,0,0,0,25,25,27.15,27.15,0,0,0-25-25ZM67.81,92.5h0A31.1,31.1,0,0,1,42.69,76.6v40.87h1.92a27.13,27.13,0,0,0,23.2-25ZM96.68,65.41h0V63.48H55.8A31.1,31.1,0,0,1,71.7,88.6a27.13,27.13,0,0,0,25-23.19Zm55.6,55.93A31,31,0,0,1,125.54,92.5,31.09,31.09,0,0,1,98.62,73.05,31.06,31.06,0,0,1,71.71,92.5,31,31,0,0,1,45,121.34l-.26,0H38.79V59.59H158.46v61.78h-5.92Z" transform="translate(-0.22 -59.59)"/><path d="M5.28,129.33V136H4v-6.7H.22v-1.17H9v1.17Z" transform="translate(-0.22 -59.59)"/><path d="M14.9,136v-7.87h7.94v1.17H16.21v2h4.61v1.17H16.21v2.31h6.93V136Z" transform="translate(-0.22 -59.59)"/><path d="M37.19,136l-.91-1.76H31L30.07,136H28.65l4.16-7.87h1.64L38.62,136Zm-3.55-6.74-2,3.8h4Z" transform="translate(-0.22 -59.59)"/><path d="M47.27,129.33V136H46v-6.7H42.2v-1.17H51v1.17Z" transform="translate(-0.22 -59.59)"/><path d="M64.3,136l-2.13-3h-4v3H56.89v-7.87H63.1a2.74,2.74,0,0,1,1.95.66,2.41,2.41,0,0,1,.7,1.82,2.61,2.61,0,0,1-.15.92,2,2,0,0,1-1.09,1.15,3.1,3.1,0,0,1-.8.25l2.1,3.07Zm-1.4-4.18a1.77,1.77,0,0,0,1.13-.31,1.11,1.11,0,0,0,.38-.9c0-.87-.54-1.31-1.63-1.31H58.2v2.52Z" transform="translate(-0.22 -59.59)"/><path d="M81.75,132.08a3.74,3.74,0,0,1-1.58,3.13,5.17,5.17,0,0,1-1.54.77,6.55,6.55,0,0,1-1.92.28,6.34,6.34,0,0,1-1.93-.29,4.89,4.89,0,0,1-1.55-.77,3.71,3.71,0,0,1-1.58-3.12,3.75,3.75,0,0,1,1.6-3.11,5.37,5.37,0,0,1,1.55-.78,6.62,6.62,0,0,1,3.81,0,5,5,0,0,1,1.54.78A3.75,3.75,0,0,1,81.75,132.08Zm-1.36,0a2.68,2.68,0,0,0-1.17-2.24,3.76,3.76,0,0,0-1.12-.54,4.76,4.76,0,0,0-1.39-.2,4.83,4.83,0,0,0-1.51.23A3.48,3.48,0,0,0,74,130a2.75,2.75,0,0,0-.76.94,2.57,2.57,0,0,0-.28,1.19,2.82,2.82,0,0,0,.26,1.21,2.74,2.74,0,0,0,.75.94,3.25,3.25,0,0,0,1.17.61,4.83,4.83,0,0,0,1.53.22,4.92,4.92,0,0,0,1.53-.22,3.16,3.16,0,0,0,1.15-.61,2.6,2.6,0,0,0,.74-.94A2.68,2.68,0,0,0,80.39,132.08Z" transform="translate(-0.22 -59.59)"/><path d="M103.49,130.38a3.71,3.71,0,0,0-1.44-1,5.58,5.58,0,0,0-1.91-.31,4.83,4.83,0,0,0-1.51.23,3.48,3.48,0,0,0-1.16.62,2.84,2.84,0,0,0-.75.94,2.58,2.58,0,0,0-.26,1.18,2.68,2.68,0,0,0,.26,1.21,2.53,2.53,0,0,0,.75.94,3.47,3.47,0,0,0,1.18.61,5.07,5.07,0,0,0,1.56.22,5.26,5.26,0,0,0,1.86-.3,3.93,3.93,0,0,0,1.43-1l1.12.62a5.15,5.15,0,0,1-1.94,1.43,6.75,6.75,0,0,1-2.54.44,6.55,6.55,0,0,1-1.92-.28,5.11,5.11,0,0,1-1.55-.77,3.87,3.87,0,0,1,0-6.24,4.94,4.94,0,0,1,1.54-.77,6.72,6.72,0,0,1,4.51.24,4.94,4.94,0,0,1,1.93,1.52Z" transform="translate(-0.22 -59.59)"/><path d="M120.52,132.08a3.73,3.73,0,0,1-1.59,3.13,4.94,4.94,0,0,1-1.54.77,6.48,6.48,0,0,1-1.91.28,6.34,6.34,0,0,1-1.93-.29,4.79,4.79,0,0,1-1.55-.77,3.72,3.72,0,0,1-1.59-3.12A3.76,3.76,0,0,1,112,129a5.25,5.25,0,0,1,1.55-.78,6.62,6.62,0,0,1,3.81,0,5.07,5.07,0,0,1,1.54.78A3.75,3.75,0,0,1,120.52,132.08Zm-1.36,0a2.68,2.68,0,0,0-1.17-2.24,3.88,3.88,0,0,0-1.12-.54,5,5,0,0,0-2.9,0,3.63,3.63,0,0,0-1.17.62,2.87,2.87,0,0,0-.76.94,2.69,2.69,0,0,0-.27,1.19,2.82,2.82,0,0,0,.26,1.21,2.63,2.63,0,0,0,.75.94,3.29,3.29,0,0,0,1.16.61,4.94,4.94,0,0,0,1.54.22,4.81,4.81,0,0,0,1.52-.22,3.21,3.21,0,0,0,1.16-.61,2.6,2.6,0,0,0,.74-.94A2.82,2.82,0,0,0,119.16,132.08Z" transform="translate(-0.22 -59.59)"/><path d="M135.78,133.48a2.08,2.08,0,0,1-.31,1.12,2.84,2.84,0,0,1-.88.88,4.72,4.72,0,0,1-1.4.58,7.53,7.53,0,0,1-1.85.21,7.22,7.22,0,0,1-1.87-.22,4.61,4.61,0,0,1-1.4-.58,2.68,2.68,0,0,1-.89-.88,2.07,2.07,0,0,1-.31-1.11v-5.32h1.3v5a1.55,1.55,0,0,0,.8,1.41,4.55,4.55,0,0,0,2.37.49,4.48,4.48,0,0,0,2.34-.49,1.55,1.55,0,0,0,.8-1.41v-5h1.3Z" transform="translate(-0.22 -59.59)"/><path d="M149.53,130a8.1,8.1,0,0,0-1.75-.68,7.79,7.79,0,0,0-1.81-.21,4.71,4.71,0,0,0-1.86.28c-.42.2-.63.45-.63.78s.23.6.68.76a3.16,3.16,0,0,0,.72.17l.87.08,1,.06c.36,0,.74.05,1.14.1a4.75,4.75,0,0,1,2.19.72,1.79,1.79,0,0,1,.7,1.52,2.16,2.16,0,0,1-1.09,1.94,6.14,6.14,0,0,1-3.2.68,9.77,9.77,0,0,1-2.67-.32,5.58,5.58,0,0,1-2-1l.71-.95a7.28,7.28,0,0,0,4,1.13,4.81,4.81,0,0,0,2.14-.37,1.13,1.13,0,0,0,.73-1,.85.85,0,0,0-.24-.65,1.67,1.67,0,0,0-.72-.35,6.28,6.28,0,0,0-1.14-.17l-1.55-.1a14.71,14.71,0,0,1-1.59-.18,4.17,4.17,0,0,1-1.14-.34,1.67,1.67,0,0,1-.68-.6,1.7,1.7,0,0,1-.23-.94,2,2,0,0,1,1-1.74,5.52,5.52,0,0,1,2.94-.65,7.37,7.37,0,0,1,4.26,1.17Z" transform="translate(-0.22 -59.59)"/><path d="M157.12,136v-7.87h1.3V136Z" transform="translate(-0.22 -59.59)"/><path d="M172.62,136l-6-6.46V136h-1.31v-7.87h1.62l6,6.45v-6.45h1.31V136Zm-1-9.57c-.33.61-.7.92-1.12.92a1.16,1.16,0,0,1-.42-.07l-.38-.13-.33-.14a.77.77,0,0,0-.27-.07c-.18,0-.38.18-.58.53l-.64-.5a4.12,4.12,0,0,1,.62-.63.86.86,0,0,1,.55-.22,1.21,1.21,0,0,1,.38.06,3,3,0,0,1,.36.15l.34.14a.89.89,0,0,0,.31.06.41.41,0,0,0,.31-.12,1.87,1.87,0,0,0,.28-.38Z" transform="translate(-0.22 -59.59)"/><path d="M190.76,132.08a3.73,3.73,0,0,1-1.59,3.13,4.94,4.94,0,0,1-1.54.77,6.48,6.48,0,0,1-1.91.28,6.34,6.34,0,0,1-1.93-.29,4.79,4.79,0,0,1-1.55-.77,3.72,3.72,0,0,1-1.59-3.12,3.76,3.76,0,0,1,1.61-3.11,5.25,5.25,0,0,1,1.55-.78,6.62,6.62,0,0,1,3.81,0,5.07,5.07,0,0,1,1.54.78A3.75,3.75,0,0,1,190.76,132.08Zm-1.36,0a2.68,2.68,0,0,0-1.17-2.24,3.76,3.76,0,0,0-1.12-.54,4.76,4.76,0,0,0-1.39-.2,4.83,4.83,0,0,0-1.51.23A3.63,3.63,0,0,0,183,130a2.87,2.87,0,0,0-.76.94,2.69,2.69,0,0,0-.27,1.19,2.82,2.82,0,0,0,.26,1.21,2.63,2.63,0,0,0,.75.94,3.29,3.29,0,0,0,1.16.61,4.94,4.94,0,0,0,1.54.22,4.81,4.81,0,0,0,1.52-.22,3.21,3.21,0,0,0,1.16-.61,2.6,2.6,0,0,0,.74-.94A2.82,2.82,0,0,0,189.4,132.08Z" transform="translate(-0.22 -59.59)"/></svg>